# xmcd CD database file
# Copyright (C) 1993-1998 Ti Kan
#
# Track frame offsets:
# 182
# 8940
# 20945
# 30202
# 39147
# 52127
# 63120
# 72292
# 85362
# 97907
# 105732
# 115782
# 126827
# 135700
# 144452
# 154332
# 164540
# 175505
# 186077
# 198742
# 208372
# 219057
# 228315
# 237580
# 251595
# 263280
#
# Disc length: 3667 seconds
#
# Revision: 0
# Processed by: cddbd v1.4b41PL1 Copyright (c) Steve Scherf et al.
# Submitted via: inCDius 1.1b8
#
DISCID=6a0e511a
DTITLE=Connie Stevens - The Hank Williams Songbook
DYEAR=1900
DGENRE=
TTITLE0=Hey! Good Lookin'
TTITLE1=I Can't Help It 
TTITLE2=Your Cheatin' Heart
TTITLE3=Jambalaya
TTITLE4=A Teardrop On A Rose
TTITLE5=You Win Again
TTITLE6=Settin' The Woods on Fire
TTITLE7=I'm So Lonesome I Could Cry
TTITLE8=Cold, Cold heart
TTITLE9=Honky Tonkin'
TTITLE10=Nobody's Lonesome For me
TTITLE11=May You Never Be Alone
TTITLE12=Sixteen Reasons
TTITLE13=Apollo
TTITLE14=Too Young To go Steady
TTITLE15=Why Do I Cry For Joey
TTITLE16=A Little Kiss Is A Kiss, Is A Kiss
TTITLE17=Just One Kiss
TTITLE18=Make Believe Lover
TTITLE19=Why'd Wanna Make Me cry
TTITLE20=Mr. Songwriter
TTITLE21=Little Miss Understood
TTITLE22=Lost In Wonderland
TTITLE23=Now That You've Gone
TTITLE24=II Couldn't Say No
TTITLE25=In My room
EXTD=
EXTT0=
EXTT1=
EXTT2=
EXTT3=
EXTT4=
EXTT5=
EXTT6=
EXTT7=
EXTT8=
EXTT9=
EXTT10=
EXTT11=
EXTT12=
EXTT13=
EXTT14=
EXTT15=
EXTT16=
EXTT17=
EXTT18=
EXTT19=
EXTT20=
EXTT21=
EXTT22=
EXTT23=
EXTT24=
EXTT25=
PLAYORDER=
